<?xml version="1.0" standalone="no"?>
<!DOCTYPE svg PUBLIC "-//W3C//DTD SVG 20010904//EN"
 "http://www.w3.org/TR/2001/REC-SVG-20010904/DTD/svg10.dtd">
<svg version="1.0" xmlns="http://www.w3.org/2000/svg"
 width="260.000000pt" height="260.000000pt" viewBox="0 0 260.000000 260.000000"
 preserveAspectRatio="xMidYMid meet">
<metadata>
Created by potrace 1.11, written by Peter Selinger 2001-2013
</metadata>
<g transform="translate(0.000000,260.000000) scale(0.100000,-0.100000)"
fill="#000000" stroke="none">
<path d="M105 2591 c-3 -5 49 -51 115 -102 66 -50 120 -93 120 -94 0 -3 -88
25 -220 69 -41 14 -68 20 -60 14 9 -6 72 -48 140 -94 68 -46 120 -84 114 -84
-5 0 -70 16 -144 35 -74 19 -136 32 -138 30 -2 -1 61 -36 140 -75 79 -40 145
-75 148 -77 8 -7 -181 13 -210 23 -10 3 -11 2 -5 -4 6 -5 74 -33 153 -62 78
-29 141 -54 140 -56 -4 -3 -127 -12 -198 -14 l-55 -1 45 -14 c25 -7 98 -25
163 -40 65 -15 116 -29 115 -30 -2 -2 -19 -6 -38 -9 -19 -3 -46 -8 -60 -11
-13 -2 -42 -7 -65 -11 -39 -5 -68 -20 -43 -21 17 -1 169 -33 188 -39 8 -3 -31
-25 -90 -50 l-105 -44 59 5 c32 3 62 7 65 9 3 2 33 7 66 10 33 3 71 8 85 10
14 3 43 7 65 10 39 6 40 5 19 -12 -12 -9 -74 -53 -138 -97 -64 -44 -116 -80
-116 -81 0 -2 224 46 238 51 7 3 1 -11 -14 -30 -15 -20 -25 -37 -23 -38 2 -1
54 -27 114 -58 l110 -56 26 -73 c14 -41 31 -76 37 -78 7 -2 12 -12 12 -23 0
-10 5 -19 11 -19 6 0 9 -7 6 -15 -10 -25 14 -28 39 -4 27 25 27 25 15 -17 -8
-28 -7 -31 10 -27 10 3 30 24 43 47 14 24 33 49 42 57 15 12 16 12 11 -6 -13
-44 -19 -94 -12 -114 5 -18 12 -11 39 42 65 124 60 122 67 37 l7 -75 -71 -135
c-39 -74 -79 -151 -88 -170 -17 -34 -43 -150 -35 -157 2 -2 11 3 20 12 9 9 16
13 16 8 0 -5 -24 -79 -54 -166 -49 -141 -52 -156 -32 -145 30 16 53 43 116
136 53 78 78 102 66 65 -16 -51 -82 -373 -77 -373 18 1 34 24 71 105 22 50 50
108 61 130 l21 40 -6 -35 c-3 -19 -8 -44 -10 -55 -2 -11 -7 -42 -10 -68 -4
-26 -11 -71 -17 -100 -5 -29 -12 -68 -15 -87 -3 -19 -7 -46 -9 -59 -15 -90
-17 -113 -8 -108 5 3 40 76 78 161 38 86 71 156 74 156 3 0 7 -46 9 -103 1
-63 10 -133 23 -182 11 -44 22 -88 24 -98 14 -65 18 -60 51 53 24 85 34 141
37 218 3 57 7 105 9 108 3 2 17 -22 31 -53 13 -32 44 -102 68 -155 24 -54 47
-98 51 -98 8 0 1 106 -8 121 -2 4 -8 38 -14 75 -5 38 -12 83 -15 99 -3 17 -7
44 -10 60 -3 17 -7 40 -9 51 -19 98 -15 97 38 -13 30 -61 57 -120 60 -130 3
-10 15 -24 26 -31 19 -11 20 -10 15 10 -24 104 -84 382 -82 384 1 1 35 -44 76
-100 40 -57 86 -111 102 -120 l28 -17 -50 143 c-28 79 -52 151 -54 160 -4 20
11 25 18 6 2 -7 7 -10 11 -7 3 3 1 32 -5 65 -10 59 -21 82 -127 284 -54 102
-56 107 -53 175 1 39 6 73 10 77 4 5 25 -28 46 -73 33 -68 41 -78 51 -64 8 11
9 27 4 48 -25 97 -25 96 10 52 18 -22 37 -50 43 -62 6 -13 18 -23 29 -23 21 0
21 1 8 34 -11 31 -7 33 20 6 25 -25 39 -26 36 -3 -2 10 3 24 11 31 7 8 11 18
8 23 -4 5 0 9 8 9 8 0 22 29 37 76 l23 75 120 60 119 60 -28 31 -29 31 40 -7
c22 -3 77 -15 123 -25 45 -10 82 -17 82 -16 0 3 -46 36 -217 154 -28 20 -51
37 -49 38 2 2 116 -13 284 -39 40 -6 75 -9 77 -6 3 2 -38 22 -90 43 -53 21
-92 42 -88 46 4 4 35 13 68 19 33 6 67 13 75 15 8 2 26 4 40 5 58 2 -18 23
-165 46 -22 3 -41 7 -42 8 -3 2 216 55 258 63 8 1 26 7 40 12 20 8 14 10 -36
11 -33 1 -73 3 -90 5 -16 1 -48 3 -70 4 l-40 2 35 14 c19 8 78 30 130 50 159
60 159 60 -30 39 l-55 -6 152 78 c83 43 150 80 148 82 -2 2 -65 -13 -140 -33
-75 -20 -139 -35 -141 -32 -2 2 55 43 126 92 72 48 130 89 130 90 0 2 -64 -19
-142 -46 -77 -27 -142 -48 -144 -46 -2 1 51 43 116 92 65 50 118 95 116 100
-1 6 -26 11 -54 13 -47 3 -64 -4 -229 -89 -239 -123 -343 -178 -373 -199 -14
-9 -69 -38 -123 -63 -96 -45 -213 -132 -215 -159 0 -7 -20 -82 -43 -166 -46
-164 -60 -177 -65 -60 -4 89 -36 130 -101 130 -30 0 -43 -6 -65 -33 -24 -28
-28 -43 -29 -94 0 -33 -4 -69 -8 -80 -9 -21 -31 42 -82 232 -25 95 -20 86 -84
141 -39 34 -218 132 -241 132 -3 0 -20 11 -37 24 -18 13 -133 75 -257 139
-124 64 -238 123 -255 131 -33 17 -130 22 -140 7z"/>
</g>
</svg>
